<svg width="382" height="118" viewBox="0 0 382 118" fill="none" xmlns="http://www.w3.org/2000/svg">
<path fill-rule="evenodd" clip-rule="evenodd" d="M81.4644 25.659C80.7384 23.1726 79.5084 19.4106 77.9004 16.7142C70.9848 5.12456 58.4351 -0.77105 46.0427 0.0809521L45.9851 0.0833508C-3.31581 2.84456 -16.8458 67.7107 24.5063 91.868C23.9183 91.06 23.3626 90.2279 22.8394 89.3719C16.3714 78.7939 15.6238 65.5783 20.8546 54.3331L20.8594 54.3211L20.8678 54.3031L21.0166 53.9887L21.031 53.9575L21.1834 53.6431L21.2014 53.6071C21.2518 53.5031 21.3034 53.3995 21.3562 53.2963L21.3622 53.2843L21.3682 53.2723L21.523 52.9699L21.5362 52.9423L21.5482 52.9231C21.6018 52.8167 21.657 52.7103 21.7138 52.6039V52.6027C21.833 52.3795 21.9534 52.1583 22.075 51.9391L22.0798 51.9307L22.081 51.9283L22.2574 51.6163L22.2682 51.5971L22.2802 51.5755L22.4482 51.2827L22.4698 51.2479C22.525 51.1527 22.581 51.0583 22.6378 50.9647L22.6703 50.9095L22.8478 50.6167L22.8515 50.6095L23.0507 50.2891L23.0531 50.2855L23.0674 50.2615C23.1274 50.1655 23.1883 50.0695 23.2499 49.9735L23.263 49.9531C23.3958 49.7459 23.5311 49.5399 23.6687 49.3351L23.6722 49.3291L23.6746 49.3255L23.683 49.3135C23.7502 49.2135 23.8182 49.1135 23.887 49.0135L23.8907 49.0063C24.0307 48.8023 24.1731 48.5991 24.3179 48.3967L24.3394 48.3655L24.5471 48.0787L24.5482 48.0763L24.7714 47.7763L24.7786 47.7667C24.8514 47.6675 24.9258 47.5687 25.0018 47.4703L25.0079 47.4619L25.2335 47.1703L25.2418 47.1595L25.4722 46.8655C27.0971 45.0727 28.8731 43.2978 30.6935 41.505L30.7187 41.4811L30.7439 41.4558L30.7595 41.4414L30.7691 41.4295L30.7955 41.4054L30.8195 41.3814L30.8447 41.3562L30.8711 41.3322L30.8951 41.3058L30.9203 41.2819L30.9467 41.2578L30.9719 41.2314L30.9803 41.223L30.9959 41.2074L31.0211 41.1822L31.0475 41.157L31.0715 41.133L31.0919 41.1139L31.0979 41.1078L31.1219 41.0826L31.1483 41.0586L31.1735 41.0334L31.1987 41.0082L31.2023 41.0046L31.2239 40.983L31.2491 40.9591L31.2743 40.9338L31.3007 40.9099L31.3127 40.8954L31.3259 40.8834L31.3499 40.8594L31.3763 40.8342L31.4015 40.8102L31.4255 40.7862L31.4267 40.7838L31.4519 40.7599L31.4771 40.7346L31.5035 40.7094L31.5275 40.6854L31.5359 40.6782L31.5539 40.6591L31.5791 40.635L31.6043 40.611L31.6295 40.5846L31.6475 40.5678L31.6547 40.5594L31.6811 40.5354L31.7051 40.5102L31.7315 40.485L31.7579 40.4586L31.7819 40.4346L31.8083 40.4107L31.8323 40.3842L31.8587 40.3602L31.8707 40.3482L31.8839 40.3362L31.9091 40.3099L31.9343 40.2858L31.9595 40.2607L31.9823 40.239L31.9859 40.2354L32.0099 40.2115L32.0363 40.185L32.0615 40.161L32.0879 40.1358L32.0939 40.1298L32.1131 40.1107L32.1371 40.0854L32.1635 40.0614L32.1887 40.035L32.2055 40.0206L32.2139 40.0099L32.2403 39.9858L32.2643 39.9606L32.2907 39.9354L32.3159 39.9114C36.1151 36.1734 39.9779 32.301 42.9767 27.933C45.9371 23.6214 48.0563 18.8274 48.4427 13.2066C49.9187 16.8906 50.4227 20.1102 50.2343 22.995C49.5791 33.039 40.5239 39.033 34.7615 46.3999C28.0655 54.9607 22.1374 66.1399 27.1235 83.1859C29.5871 90.4207 33.6539 96.914 38.8979 102.244C48.0275 111.522 60.7283 117.274 74.7732 117.274C79.0476 117.274 83.1972 116.742 87.1596 115.738C92.436 114.404 97.38 112.234 101.844 109.381C95.586 110.971 90.2832 112.225 83.568 112.225C57.6479 112.225 36.0275 90.9548 34.3199 65.3515C34.8287 58.4587 36.9659 54.7855 42.2723 49.0171C48.5027 42.2455 56.9507 38.0766 61.8227 30.5214C62.0115 30.2286 62.1951 29.9302 62.3735 29.6262C65.6352 24.0594 65.916 19.9122 65.8596 17.4054C65.7876 14.337 65.4395 13.8846 67.3044 17.169C69.6168 21.2502 70.4856 24.657 70.6308 27.6246C70.7388 29.8086 70.4544 31.755 70.0668 33.5622C69.0828 38.1342 67.4268 41.8062 69.7308 46.1214C70.5024 47.5663 73.182 49.9555 73.6332 50.9623C74.0112 52.4479 71.3556 52.4011 70.1328 53.4535C70.0368 54.7939 71.0424 55.8439 70.968 57.0595C70.8936 58.2871 69.864 58.5415 68.7888 59.0131C68.7776 59.2987 68.7635 59.5955 68.7467 59.9035C69.2747 60.2791 69.714 60.4207 69.9108 61.0879C69.7824 62.6959 68.0268 62.6191 67.6548 64.2079C67.3812 65.3743 68.2188 66.2635 68.208 67.7431C68.1792 72.0979 63.6971 72.7975 59.8043 72.5671C58.5551 72.4939 57.3659 72.3235 56.4035 72.1471C54.3563 71.7751 52.2179 71.0671 50.3267 70.7575C50.3355 70.8119 50.3455 70.8667 50.3567 70.9219C50.3663 70.9779 50.3775 71.0339 50.3903 71.0899C53.3243 93.962 74.9004 106.359 91.5072 100.932C98.1456 98.762 103.99 93.7448 107.533 85.4107C107.639 85.1623 107.476 85.2907 107.418 85.3903C103.486 92.1704 95.8536 96.4184 87.7104 95.7464C79.2564 95.0516 72.252 89.2352 69.8088 81.4039C69.5532 80.9395 69.2772 80.4739 68.9688 80.0071C68.6124 79.5415 68.6891 79.0027 69.1475 78.6967C69.5136 78.4507 69.804 78.5023 70.1436 78.6451C71.5416 79.2331 69.6312 77.5795 70.1196 76.5631C70.4964 75.7759 71.1576 75.8971 71.8308 76.1671C72.0636 76.2595 72.3864 76.0891 72.2772 75.8467L72.0144 75.2635C71.6424 74.4379 72.7932 73.9999 73.9596 74.8663C74.6292 75.3619 74.8848 75.3211 74.916 74.5003C74.9424 73.7059 75.9852 73.9207 76.4196 74.3083C79.0212 76.6219 77.94 79.4035 80.5992 81.5396C82.2096 83.1596 84.4392 84.1639 86.9028 84.1639C91.3896 84.1639 95.0988 80.8387 95.7012 76.5187C95.7588 76.4523 95.7968 76.4055 95.8152 76.3783L95.6592 76.1887C95.4912 76.2487 95.0832 76.5763 94.8792 76.7071C93.252 78.7327 90.7524 80.03 87.9516 80.03C87.518 80.03 87.0924 79.9995 86.6748 79.9387C85.9392 79.8331 85.2312 79.6364 84.5652 79.3628L84.5724 79.3219L84.5784 79.2811L84.5856 79.2415L84.5916 79.2007L84.5988 79.1612L84.606 79.1215L84.6132 79.0819L84.6204 79.0424L84.6288 79.0015L84.636 78.9619L84.6444 78.9223L84.6528 78.8827L84.6612 78.8443L84.6696 78.8035L84.6768 78.7639L84.6864 78.7255L84.6948 78.6859L84.7044 78.6475L84.7128 78.6079L84.7224 78.5683L84.732 78.5287L84.7416 78.4903L84.7512 78.4507L84.762 78.4123L84.7716 78.3739L84.7824 78.3355L84.792 78.2959L84.804 78.2575L84.8136 78.2191L84.8244 78.1807L84.8364 78.1424L84.8472 78.1039L84.858 78.0655L84.87 78.0271L84.882 77.9887L84.8928 77.9503L84.9048 77.9131L84.9168 77.8747L84.9288 77.8363L84.9408 77.7991L84.9528 77.7607L84.9672 77.7235L84.9792 77.6851L84.9912 77.6479L85.0056 77.6107L85.0176 77.5735L85.032 77.5351L85.0452 77.4991L85.0596 77.4607L85.0728 77.4247L85.0872 77.3863L85.1016 77.3503L85.1148 77.3131L85.1292 77.2759L85.1436 77.2399L85.1592 77.2015L85.1736 77.1655L85.188 77.1295L85.2036 77.0923L85.2192 77.0563L85.2348 77.0203L85.2504 76.9831L85.266 76.9471L85.2816 76.9111C86.8176 73.4167 90.3072 70.9783 94.368 70.9783H94.4868C94.7044 70.9143 94.9084 70.8759 95.0988 70.8631C91.7556 70.9615 90.384 70.4791 88.2444 69.3019C84.7668 67.3867 83.0124 65.2795 83.34 61.2103C83.3472 61.1167 83.232 61.0123 83.1 60.8419C82.8768 60.5575 82.5912 60.1243 82.6812 59.5411C82.8948 58.1695 84.2484 57.5131 83.736 56.7331C83.1288 55.6591 82.2444 54.7411 83.772 54.1699C85.908 53.3719 87.3168 52.0375 87.3816 49.9579C87.426 48.5719 87.708 46.4142 88.1184 45.1746C93.4536 29.0946 121.781 31.8618 122.068 54.3343C122.14 59.9731 120.577 64.1791 114.113 67.2775C116.273 70.0027 117.497 74.1679 117.689 77.5615C118.082 84.5276 115.487 91.7432 111.128 97.5368C115.536 96.5012 119.656 94.7204 123.348 92.3348C163.421 59.1007 129.207 3.29335 81.4836 25.725L81.4644 25.659ZM86.0412 23.919C87.0756 23.583 86.5524 23.7534 86.0412 23.919ZM110.772 98.0024C110.564 98.2712 110.351 98.5368 110.134 98.7992C109.574 99.4748 109.374 99.7136 109.51 99.6992C109.412 99.7112 109.942 99.1124 110.772 98.0024ZM53.0771 103.038C53.4371 103.285 53.2559 103.16 53.0771 103.038Z" fill="#F0AFCD"/>
<path d="M188.788 24.1624V52.0925C188.788 52.7009 188.555 53.2409 188.174 53.6309C187.793 54.0233 187.261 54.2621 186.672 54.2621H182.406C181.812 54.2621 181.267 54.0209 180.873 53.6261C180.484 53.2361 180.242 52.6973 180.242 52.0925V28.4356H174.836C173.402 28.4356 172.117 28.8676 171.099 29.6428C170.083 30.4156 169.333 31.5316 168.969 32.8996L163.831 52.1057C163.666 52.7153 163.291 53.2565 162.805 53.6417C162.321 54.0281 161.726 54.2621 161.12 54.2621H156.578C156.421 54.2621 156.272 54.2421 156.129 54.2021C155.798 54.1121 155.515 53.9237 155.316 53.6693C155.116 53.4149 155 53.0957 155 52.7453C155 52.6037 155.02 52.4577 155.06 52.3073L160.748 30.7552C161.692 27.1828 163.79 24.994 166.47 23.6968C169.146 22.4032 172.398 22 175.662 22H186.855C187.389 22 187.864 22.2508 188.211 22.6384C188.569 23.0404 188.787 23.59 188.787 24.1624M197.267 22H223.093C223.687 22 224.233 22.24 224.627 22.6348C225.014 23.0212 225.257 23.5588 225.257 24.1624V26.2732C225.257 26.878 225.014 27.4144 224.627 27.802C224.233 28.1956 223.687 28.4356 223.093 28.4356H203.653V34.8916H220.389C220.977 34.8916 221.517 35.1376 221.913 35.5312C222.306 35.9248 222.552 36.466 222.552 37.0528V39.1637C222.552 39.7517 222.306 40.2917 221.912 40.6865C221.519 41.0789 220.977 41.3261 220.389 41.3261H203.653V47.8265H223.05C223.638 47.8265 224.166 48.0617 224.55 48.4445C224.931 48.8273 225.167 49.3565 225.167 49.9445V52.0997C225.167 52.6937 224.927 53.2397 224.532 53.6333C224.145 54.0209 223.608 54.2621 223.004 54.2621H197.269C196.662 54.2621 196.123 54.0173 195.735 53.6213C195.344 53.2217 195.106 52.6673 195.106 52.0541V24.1168C195.106 23.5324 195.351 23.0056 195.741 22.624C196.135 22.2388 196.679 22 197.269 22M228.234 47.8265H229.937L234.101 30.8476C234.977 27.2536 236.994 25.0396 239.61 23.7268C242.222 22.4152 245.43 22 248.694 22H260.804C261.395 22 261.938 22.2388 262.332 22.624C262.723 23.0056 262.967 23.5324 262.967 24.1168V52.1453C262.967 52.7309 262.723 53.2565 262.332 53.6393C261.938 54.0245 261.395 54.2633 260.804 54.2633H228.234C227.646 54.2633 227.106 54.0149 226.712 53.6213C226.317 53.2289 226.071 52.6877 226.071 52.0997V49.9445C226.071 49.3589 226.316 48.8321 226.706 48.4505C227.1 48.0641 227.643 47.8265 228.234 47.8265ZM244.316 29.5804C243.386 30.3364 242.737 31.4416 242.414 32.806L238.669 47.8265H254.421V28.4344H247.776C246.386 28.4344 245.219 28.8436 244.316 29.5804ZM301.41 53.6189C301.016 54.0149 300.475 54.2621 299.888 54.2621H295.943C295.356 54.2621 294.815 54.0149 294.421 53.6189C294.028 53.2229 293.78 52.6793 293.78 52.0925V31.4884L282.181 52.1177C281.851 52.7069 281.317 53.2505 280.715 53.6417C280.129 54.0233 279.475 54.2621 278.879 54.2621H271.447C270.842 54.2621 270.307 54.0185 269.919 53.6309C269.523 53.2349 269.283 52.6853 269.283 52.0925V24.1708C269.283 23.5588 269.52 23.0164 269.907 22.6264C270.296 22.2364 270.836 22 271.447 22H275.389C275.98 22 276.523 22.24 276.917 22.6264C277.308 23.0104 277.553 23.5384 277.553 24.124V46.3817L290.207 24.1456C290.543 23.5672 291.066 23.014 291.647 22.6144C292.189 22.24 292.783 22 293.327 22H299.932C300.516 22 301.043 22.246 301.424 22.6372C301.811 23.0332 302.048 23.5792 302.048 24.1708V52.0925C302.048 52.6805 301.801 53.2229 301.408 53.6189M165.627 94.9674C165.235 95.3514 164.691 95.5902 164.101 95.5902H159.88C159.29 95.5902 158.746 95.3406 158.352 94.9374C157.963 94.539 157.717 93.9894 157.717 93.3822V65.5361C157.717 64.9277 157.963 64.3781 158.353 63.9797C158.746 63.5765 159.289 63.3281 159.88 63.3281H164.101C164.691 63.3281 165.235 63.5765 165.628 63.9797C166.018 64.3781 166.263 64.9277 166.263 65.5361V76.2185H171.027C172.323 76.2185 173.438 75.8885 174.45 75.1625C175.462 74.4317 176.376 73.3025 177.266 71.7029L180.753 65.5109C181.153 64.7993 181.648 64.2701 182.184 63.9101C182.769 63.5177 183.402 63.3281 184.009 63.3281H189.193C189.472 63.3289 189.699 63.3789 189.875 63.4781C190.023 63.5613 190.135 63.6741 190.209 63.8165C190.284 63.9581 190.321 64.1225 190.321 64.3097C190.321 64.6613 190.189 65.0897 189.927 65.5613L185.065 74.3694C184.489 75.405 183.822 76.4633 182.905 77.3573C182.029 78.2118 180.925 78.915 179.458 79.2978C180.343 79.5378 181.234 80.133 182.064 80.8854C183.256 81.9642 184.326 83.3682 185.064 84.4998L190.659 93.399C190.928 93.8358 191.059 94.239 191.059 94.575C191.059 94.7558 191.022 94.9162 190.948 95.0562C190.876 95.1978 190.769 95.3126 190.625 95.4006C190.426 95.523 190.161 95.5902 189.836 95.5902H184.698C184.106 95.5902 183.41 95.3502 182.769 94.959C182.148 94.5774 181.579 94.0494 181.213 93.4542L177.267 87.2166C176.422 85.8678 175.576 84.7254 174.584 83.9202C173.595 83.1198 172.459 82.653 171.027 82.653H166.263V93.4734C166.263 94.0578 166.018 94.5846 165.627 94.9674ZM225.257 65.4905V93.4194C225.257 94.0278 225.023 94.569 224.643 94.959C224.261 95.3514 223.729 95.5902 223.14 95.5902H218.874C218.281 95.5902 217.735 95.3478 217.341 94.953C216.953 94.5642 216.711 94.0254 216.711 93.4194V69.7625H211.304C209.87 69.7625 208.585 70.1945 207.567 70.9697C206.551 71.7437 205.801 72.8585 205.437 74.2277L200.299 93.4326C200.135 94.0422 199.759 94.5846 199.273 94.9698C198.789 95.3562 198.194 95.5902 197.588 95.5902H193.047C192.889 95.5894 192.739 95.5694 192.597 95.5302C192.266 95.4402 191.984 95.2506 191.784 94.9974C191.585 94.743 191.468 94.4238 191.468 94.0734C191.468 93.9318 191.488 93.7858 191.528 93.6354L197.216 72.0833C198.16 68.5109 200.258 66.3209 202.939 65.0237C205.613 63.7301 208.867 63.3281 212.131 63.3281H223.323C223.857 63.3281 224.333 63.5777 224.679 63.9665C225.037 64.3673 225.257 64.9169 225.257 65.4905ZM263.699 94.947C263.305 95.343 262.765 95.5902 262.178 95.5902H258.233C257.645 95.5902 257.105 95.3418 256.712 94.947C256.317 94.551 256.07 94.0074 256.07 93.4194V72.8153L244.47 93.4446C244.141 94.035 243.607 94.5786 243.005 94.9698C242.418 95.3514 241.765 95.5902 241.167 95.5902H233.736C233.132 95.5902 232.596 95.3466 232.209 94.9578C231.813 94.5618 231.573 94.0134 231.573 93.4194V65.4977C231.573 64.8857 231.81 64.3433 232.197 63.9533C232.586 63.5645 233.126 63.3281 233.736 63.3281H237.681C238.272 63.3281 238.814 63.5669 239.209 63.9533C239.599 64.3373 239.845 64.8665 239.845 65.4521V87.7086L252.499 65.4725C252.835 64.8953 253.357 64.3409 253.938 63.9413C254.48 63.5681 255.077 63.3281 255.618 63.3281H262.224C262.808 63.3281 263.335 63.5741 263.717 63.9641C264.103 64.3601 264.341 64.9073 264.341 65.4977V93.4194C264.341 94.0074 264.093 94.551 263.699 94.947ZM295.147 94.9674C294.756 94.5834 294.511 94.0578 294.511 93.4734V82.0122H279.205V93.4722C279.205 94.0578 278.962 94.5846 278.572 94.9674C278.178 95.3514 277.633 95.5902 277.043 95.5902H272.868C272.261 95.5902 271.711 95.3454 271.311 94.9542C270.909 94.5606 270.66 94.0182 270.66 93.4266V65.4977C270.66 64.8893 270.905 64.3493 271.302 63.9593C271.701 63.5669 272.256 63.3281 272.868 63.3281H277.044C277.637 63.3281 278.18 63.5681 278.576 63.9641C278.963 64.3541 279.205 64.8917 279.205 65.4977V75.5753H294.515V65.4977C294.515 64.8917 294.757 64.3541 295.145 63.9653C295.54 63.5693 296.084 63.3281 296.677 63.3281H300.852C301.464 63.3281 302.02 63.5669 302.418 63.9593C302.815 64.3493 303.06 64.8893 303.06 65.4977V93.4266C303.06 94.017 302.812 94.5618 302.408 94.9554C302.009 95.3454 301.46 95.5902 300.852 95.5902H296.676C296.087 95.5902 295.543 95.3526 295.15 94.9662M341.503 94.9458C341.11 95.3418 340.568 95.589 339.982 95.589H336.037C335.449 95.589 334.909 95.3406 334.516 94.9458C334.121 94.5498 333.874 94.0062 333.874 93.4182V72.8141L322.274 93.4434C321.944 94.0338 321.41 94.5774 320.808 94.9686C320.221 95.3502 319.568 95.589 318.972 95.589H311.54C310.936 95.589 310.4 95.3454 310.013 94.9566C309.617 94.5606 309.377 94.0122 309.377 93.4182V65.4965C309.377 64.8845 309.613 64.3421 310.001 63.9521C310.39 63.5633 310.93 63.3269 311.54 63.3269H315.485C316.075 63.3269 316.619 63.5657 317.012 63.9521C317.402 64.3361 317.648 64.8653 317.648 65.4509V87.7074L330.302 65.4713C330.638 64.8941 331.162 64.3397 331.741 63.9401C332.285 63.5669 332.88 63.3269 333.421 63.3269H340.027C340.612 63.3269 341.138 63.5729 341.52 63.9629C341.906 64.3589 342.144 64.9061 342.144 65.4965V93.4182C342.144 94.0062 341.897 94.5498 341.503 94.9458ZM356.372 94.9662C355.979 95.3502 355.435 95.589 354.845 95.589H350.624C350.034 95.589 349.49 95.3394 349.097 94.9362C348.707 94.5378 348.461 93.9882 348.461 93.381V65.5349C348.461 64.9265 348.707 64.3769 349.097 63.9785C349.49 63.5753 350.033 63.3269 350.624 63.3269H354.845C355.435 63.3269 355.979 63.5753 356.372 63.9785C356.762 64.3769 357.007 64.9265 357.007 65.5349V76.2173H361.771C363.067 76.2173 364.182 75.8873 365.193 75.1613C366.207 74.4305 367.12 73.3013 368.01 71.7017L371.497 65.5097C371.896 64.7981 372.393 64.2689 372.928 63.9089C373.513 63.5165 374.146 63.3269 374.753 63.3269H379.937C380.215 63.3277 380.443 63.3777 380.619 63.4769C380.767 63.5601 380.879 63.6729 380.955 63.8153C381.028 63.9569 381.065 64.1213 381.065 64.3085C381.065 64.6601 380.933 65.0885 380.671 65.5601L375.809 74.3681C375.233 75.4037 374.566 76.4621 373.649 77.3561C372.773 78.2105 371.669 78.9137 370.204 79.2966C371.087 79.5366 371.977 80.1317 372.808 80.8842C374.001 81.963 375.07 83.367 375.808 84.4986L381.403 93.3978C381.673 93.8346 381.803 94.2378 381.803 94.5738C381.803 94.7546 381.766 94.915 381.693 95.055C381.621 95.1966 381.513 95.3114 381.369 95.3994C381.171 95.5218 380.905 95.589 380.58 95.589H375.442C374.851 95.589 374.153 95.349 373.513 94.9578C372.892 94.5762 372.323 94.0482 371.956 93.453L368.013 87.2154C367.167 85.8666 366.321 84.7242 365.328 83.9189C364.341 83.1185 363.204 82.6517 361.771 82.6517H357.007V93.4722C357.007 94.0566 356.764 94.5834 356.372 94.9662Z" fill="#5E4297"/>
</svg>
